<svg xmlns="http://www.w3.org/2000/svg" xmlns:xlink="http://www.w3.org/1999/xlink" id="Warstwa_1" width="173.2" height="200" x="0" y="0" enable-background="new 0 0 173.2 200" version="1.1" viewBox="0 0 173.2 200" xml:space="preserve"><polygon fill="#ED1C24" points="0 150 0 50 86.6 0 173.2 50 173.2 150 86.6 200"/><polygon fill="#FFF" points="86.6 133.3 57.7 116.7 57.7 83.3 86.6 66.7 115.5 83.3 144.3 66.7 86.6 33.3 28.9 66.7 28.9 133.3 86.6 166.7 144.3 133.3 115.5 116.7"/><polygon stroke="#FFF" stroke-miterlimit="10" points="0 50 86.6 100 86.6 0" enable-background="new" opacity=".04"/><polygon stroke="#FFF" stroke-miterlimit="10" points="0 150 86.6 200 86.6 100" enable-background="new" opacity=".04"/><polygon stroke="#FFF" stroke-miterlimit="10" points="86.6 100 173.2 150 173.2 50" enable-background="new" opacity=".08"/><polygon fill-opacity="0" points="86.6 100 0 50 0 150"/><polygon stroke="#FFF" stroke-miterlimit="10" points="173.2 150 86.6 100 86.6 200" enable-background="new" opacity=".08"/><polygon stroke="#FFF" stroke-miterlimit="10" points="173.2 50 86.6 0 86.6 100" enable-background="new" opacity=".08"/></svg>